# xmcd
#
# Track frame offsets:
#	150
#	27600
#	49687
#	67300
#	84037
#	103465
#	128272
#	143997
#	165152
#	184902
#	206805
#	227435
#
# Disc length: 3051 seconds
#
# Revision: 2
# Processed by: cddbd v1.4PL0 Copyright (c) Steve Scherf et al.
# Submitted via: EasyCDDAExtractor 5.1.0
#
DISCID=a20be90c
DTITLE=Alejandro Sanz - No es lo mismo
DYEAR=2003
DGENRE=Latin
TTITLE0=No es lo mismo
TTITLE1=Hoy llueve, hoy duele
TTITLE2=He sido tan feliz contigo
TTITLE3=Try to save your s'ong
TTITLE4=Eso
TTITLE5=Labana
TTITLE6=Sandy a orilla do mondo
TTITLE7=12 Por 8
TTITLE8=Al olvido invito yo
TTITLE9=Regálame la silla donde te esperé
TTITLE10=Lo diré bajito
TTITLE11=Si he cantado mal
EXTD=
EXTT0=
EXTT1=
EXTT2=
EXTT3=
EXTT4=
EXTT5=
EXTT6=
EXTT7=
EXTT8=
EXTT9=
EXTT10=
EXTT11=
PLAYORDER=
